Coordinates
version=1
nRows=10
nColumns=63
inDegrees=yes

Units are S.I. units (second, meters, Newtons, ...)
If the header above contains a line with 'inDegrees', this indicates whether rotational values are in degrees (yes) or radians (no).

endheader
time	pelvis_tilt	pelvis_list	pelvis_rotation	pelvis_tx	pelvis_ty	pelvis_tz	hip_flexion_r	hip_adduction_r	hip_rotation_r	knee_angle_r	knee_angle_r_beta	ankle_angle_r	subtalar_angle_r	mtp_angle_r	hip_flexion_l	hip_adduction_l	hip_rotation_l	knee_angle_l	knee_angle_l_beta	ankle_angle_l	subtalar_angle_l	mtp_angle_l	L5_S1_Flex_Ext	L5_S1_Lat_Bending	L5_S1_axial_rotation	L4_L5_Flex_Ext	L4_L5_Lat_Bending	L4_L5_axial_rotation	L3_L4_Flex_Ext	L3_L4_Lat_Bending	L3_L4_axial_rotation	L2_L3_Flex_Ext	L2_L3_Lat_Bending	L2_L3_axial_rotation	L1_L2_Flex_Ext	L1_L2_Lat_Bending	L1_L2_axial_rotation	L1_T12_Flex_Ext	L1_T12_Lat_Bending	L1_T12_axial_rotation	Abs_r3	Abs_r2	Abs_r1	Abs_t1	Abs_t2	neck_flexion	neck_bending	neck_rotation	arm_flex_r	arm_add_r	arm_rot_r	elbow_flex_r	pro_sup_r	wrist_flex_r	wrist_dev_r	arm_flex_l	arm_add_l	arm_rot_l	elbow_flex_l	pro_sup_l	wrist_flex_l	wrist_dev_l
      0.00000000	      0.94709326	     -4.32544617	     98.20228390	      0.21439678	      0.96866250	      0.54191272	      7.47258599	     -0.25022878	    -13.65145739	      9.02620332	      0.15753697	     24.44900175	     12.12927596	      0.00000000	      6.40088587	     -0.52629948	     -8.02162136	      3.72997205	      0.06510029	     21.77833440	     10.64033623	      0.00000000	      0.61283863	      0.06203268	      0.20670968	      1.13810262	      0.08250347	      0.21962903	      1.00683258	      0.15082626	      0.21962903	      0.70041327	      0.15082626	      0.18087097	      0.56908195	      0.12649704	      0.16795161	      0.35017599	      0.09608862	      0.15503226	      4.37744504	      0.70172610	      1.14965721	      0.00000000	      0.00000000	     28.34673325	     -3.54553077	     -2.36438794	     22.84821107	     -7.66131649	    155.65779253	      6.65526265	     11.46870496	    -12.65535300	     -8.42619069	     22.95733781	     -8.26509973	    130.39065695	     19.62181296	     23.35566761	     -8.06462264	    -10.04107217
      0.01694915	      0.19670726	     -4.13223445	     97.02468317	      0.21800488	      0.96829543	      0.54093352	      7.20563015	     -0.77128778	    -13.24633698	      9.38524823	      0.16380348	     23.70779032	     11.58457451	      0.00000000	      6.38264853	     -0.16346949	     -9.53298334	      4.78506763	      0.08351519	     22.25620495	     10.30833692	      0.00000000	      0.58764211	     -0.06905125	      0.39400933	      1.09131016	     -0.09183816	      0.41863491	      0.96543722	     -0.16789120	      0.41863491	      0.67161617	     -0.16789120	      0.34475816	      0.54568446	     -0.14080930	      0.32013258	      0.33577870	     -0.10696038	      0.29550700	      4.19746882	     -0.78112151	      2.19136169	      0.00000000	      0.00000000	     28.32417981	     -2.90924359	     -4.03500644	     20.99438293	     -9.47405118	    150.55926861	      5.16176697	      5.72512586	     -8.24700839	     -8.31258215	     19.65391109	     -9.20107005	    135.79410421	     11.70596928	     28.20341576	     -7.27688597	     -7.68683207
      0.03389831	     -0.84628733	     -3.93752163	     95.84199776	      0.22225894	      0.96800700	      0.53890635	      6.82219076	     -1.39503222	    -10.96462713	      9.43102614	      0.16460246	     23.20891780	      8.96792796	      0.00000000	      6.14605617	      0.38575882	    -13.21469830	      5.44580930	      0.09504730	     23.04935318	     13.57499655	      0.00000000	      0.55043483	     -0.23264109	      0.48330124	      1.02221252	     -0.30941265	      0.51350756	      0.90430938	     -0.56564355	      0.51350756	      0.62909196	     -0.56564355	      0.42288858	      0.51113378	     -0.47440171	      0.39268226	      0.31451846	     -0.36036105	      0.36247593	      3.93170093	     -2.63168254	      2.68797649	      0.00000000	      0.00000000	     28.32344677	     -2.22964683	     -4.94621443	     19.76369580	    -11.15844693	    143.05518570	      5.09716441	      4.95180910	     -5.53534042	     -8.73119256	     16.20900816	    -10.92300233	    171.49832949	      1.84380413	      4.09216319	     -0.55811280	     -5.83435724
      0.05084746	     -1.58994898	     -3.89185230	     94.90362940	      0.22504106	      0.96773561	      0.53687673	      6.62458637	     -1.98851029	    -10.62736923	      9.43524440	      0.16467608	     23.16264705	      9.04936048	      0.00000000	      5.89335917	      0.95986357	    -14.02815136	      5.42021979	      0.09460068	     23.37877379	     13.70930673	      0.00000000	      0.55007004	     -0.34890420	      0.50976084	      1.02153507	     -0.46404258	      0.54162089	      0.90371007	     -0.84832567	      0.54162089	      0.62867505	     -0.84832567	      0.44604074	      0.51079504	     -0.71148544	      0.41418068	      0.31431002	     -0.54045260	      0.38232063	      3.92909528	     -3.94687407	      2.83513687	      0.00000000	      0.00000000	     28.32782464	     -0.90125389	     -4.54553930	     18.77964579	    -12.93676905	    140.74157032	      4.96862523	      3.50677760	     -3.74768338	     -8.43486827	     15.03869861	    -14.82522468	    171.58851139	      1.54093704	      5.27381683	      0.18556780	     -4.72652964
      0.06779661	     -2.10353797	     -3.92896200	     94.15962571	      0.22699353	      0.96756136	      0.53478058	      6.44564223	     -2.36377797	    -10.04471037	      9.18628564	      0.16033093	     23.18036805	      8.89182129	      0.00000000	      5.75007736	      1.34132560	    -15.39532175	      5.29371036	      0.09239268	     23.86854138	     15.08983495	      0.00000000	      0.56610233	     -0.42446764	      0.43676285	      1.05130863	     -0.56454197	      0.46406053	      0.93004952	     -1.03205063	      0.46406053	      0.64699835	     -1.03205063	      0.38216750	      0.52568262	     -0.86557442	      0.35486982	      0.32347087	     -0.65750038	      0.32757214	      4.04361232	     -4.80166288	      2.42914397	      0.00000000	      0.00000000	     28.34276511	      1.05363569	     -2.59936500	     18.23608191	    -14.99431195	    136.49635103	      5.88785800	      4.39336859	     -3.17335276	     -8.20389552	     14.04932833	    -18.78234470	    167.22118642	      2.62074335	      7.48474713	      0.70052237	     -4.87940126
      0.08474576	     -2.57479189	     -3.94898824	     93.48134968	      0.22829085	      0.96743933	      0.53250344	      6.27308819	     -2.76530763	     -9.64207189	      8.96587922	      0.15648411	     23.46303039	      9.14203239	      0.00000000	      5.38451837	      1.84405979	    -15.70926812	      4.65875535	      0.08131062	     24.06551964	     15.35126146	      0.00000000	      0.58041236	     -0.48844256	      0.36137221	      1.07788380	     -0.64962860	      0.38395798	      0.95355947	     -1.18759923	      0.38395798	      0.66335329	     -1.18759923	      0.31620069	      0.53897092	     -0.99603206	      0.29361492	      0.33164762	     -0.75659752	      0.27102916	      4.14582746	     -5.52535990	      2.00984383	      0.00000000	      0.00000000	     28.35650612	      2.74865911	     -0.85654141	     17.71798235	    -16.96006917	    135.56048716	      6.40254552	      4.75566091	     -2.98845585	     -7.59718818	     13.58792082	    -22.78603575	    163.82943680	      5.16230254	      7.10894769	      0.64327632	     -5.40138112
      0.10169492	     -2.92915119	     -4.05734646	     93.14027744	      0.22896693	      0.96705044	      0.53065968	      6.13382840	     -3.07123782	     -9.47771414	      8.63842015	      0.15076887	     23.72967863	      9.13518189	      0.00000000	      5.25512820	      2.24829726	    -15.64190008	      4.23751225	      0.07395854	     24.22551601	     15.47003015	      0.00000000	      0.60845018	     -0.55011239	      0.28074595	      1.12995283	     -0.73164948	      0.29829257	      0.99962280	     -1.33754326	      0.29829257	      0.69539771	     -1.33754326	      0.24565270	      0.56500684	     -1.12178918	      0.22810608	      0.34766843	     -0.85212409	      0.21055946	      4.34609881	     -6.22298136	      1.56142473	      0.00000000	      0.00000000	     28.36747288	      4.01688078	     -0.43321627	     17.06241961	    -18.83827239	    136.05728230	      6.86820010	      6.04754710	     -3.72985330	     -7.24098853	     13.59769646	    -26.85174613	    161.14870611	      8.72976581	      5.87451699	      0.27791644	     -5.33843599
      0.11864407	     -3.07653737	     -3.99465738	     92.82762805	      0.22926112	      0.96658550	      0.52874141	      5.88111353	     -3.17758006	     -9.06340523	      8.46207822	      0.14769113	     24.16482565	      8.94667576	      0.00000000	      4.84237382	      2.46706366	    -15.65003602	      3.65442992	      0.06378183	     24.44400386	     15.64719504	      0.00000000	      0.61664592	     -0.57405716	      0.06732940	      1.14517314	     -0.76349602	      0.07153749	      1.01308758	     -1.39576258	      0.07153749	      0.70476462	     -1.39576258	      0.05891323	      0.57261740	     -1.17061736	      0.05470514	      0.35235148	     -0.88921454	      0.05049705	      4.40464015	     -6.49384941	      0.37446593	      0.00000000	      0.00000000	     28.37625106	      6.11768576	      1.79263853	     16.97535215	    -20.54525909	    135.24854365	      7.77629581	      9.89270571	     -5.85145479	     -6.31207628	     11.42955358	    -31.31040646	    148.85831859	     11.26598258	      9.27347705	     -1.91284843	     -3.79923604
      0.13559322	     -3.21454609	     -3.86672467	     92.64105766	      0.22917696	      0.96614958	      0.52732536	      5.57544767	     -3.30934907	     -8.91952218	      8.29991788	      0.14486089	     24.60554394	      8.92750419	      0.00000000	      4.39047476	      2.68971370	    -15.43314055	      3.14164419	      0.05483204	     24.48485151	     15.55831937	      0.00000000	      0.61342277	     -0.60419097	     -0.02214865	      1.13918742	     -0.80357399	     -0.02353294	      1.00779227	     -1.46902992	     -0.02353294	      0.70108088	     -1.46902992	     -0.01938007	      0.56962438	     -1.23206622	     -0.01799578	      0.35050977	     -0.93589181	     -0.01661149	      4.38161750	     -6.83472906	     -0.12318416	      0.00000000	      0.00000000	     28.37982062	      6.88394436	      1.68214489	     16.30558330	    -22.23571831	    133.77244535	      8.65957535	      9.11272823	     -7.25160105	     -5.21230095	      9.93464798	    -34.65614465	    147.45316569	     12.97394277	      6.37575199	     -3.50284790	     -2.14214838
      0.15254237	     -3.22311430	     -3.63344448	     92.55061291	      0.22858138	      0.96600408	      0.52633740	      5.15867680	     -3.32996525	     -8.88098227	      8.11729291	      0.14167349	     24.94075233	      8.90336280	      0.00000000	      3.85522304	      2.78927077	    -15.23352392	      2.69510018	      0.04703837	     24.48026936	     15.46090637	      0.00000000	      0.59556340	     -0.60705208	     -0.07487616	      1.10602079	     -0.80737926	     -0.07955592	      0.97845111	     -1.47598642	     -0.07955592	      0.68066941	     -1.47598642	     -0.06551664	      0.55304017	     -1.23790060	     -0.06083688	      0.34030493	     -0.94032367	     -0.05615712	      4.25404982	     -6.86709451	     -0.41643875	      0.00000000	      0.00000000	     28.37250496	      7.28283704	      1.52418925	     15.45889044	    -23.95162791	    130.94686821	      9.52821928	      6.98429907	     -7.93322405	     -3.81262806	      8.29909744	    -37.12369437	    147.10679338	     13.51596242	      5.03927201	     -5.01600834	      0.07681638
